<svg width="45" height="45" viewBox="0 0 45 45" fill="none" xmlns="http://www.w3.org/2000/svg">
<circle cx="22.5" cy="22.5" r="22.5" fill="black" fill-opacity="0.3"/>
<path d="M37.8571 15.5428C37.7617 14.8524 37.6191 14.1139 37.4286 13.3282C37.2381 12.5426 36.9556 11.8759 36.5806 11.3281C36.2055 10.7806 35.7856 10.5066 35.3215 10.5066C35.268 10.2744 35.009 10.3012 34.5445 10.587C34.0803 10.8728 33.8628 10.9682 33.893 10.8728C33.9225 10.7775 33.7615 10.8965 33.4105 11.2298C33.0593 11.5632 32.884 11.7298 32.884 11.7298L32.357 12.2565C31.8929 12.6971 31.2174 13.0333 30.3304 13.2654C29.4434 13.4979 28.4704 13.6404 27.4108 13.6941C26.3513 13.7478 25.2887 13.7836 24.2233 13.8013C23.1577 13.819 22.0892 13.8727 21.0178 13.9619C19.9464 14.0513 19.0832 14.203 18.4286 14.4173C17.1308 14.8458 15.9165 15.4144 14.7856 16.1228C13.6545 16.8312 12.6398 17.6586 11.7409 18.6051C10.8421 19.5515 10.1337 20.6498 9.61595 21.8998C9.09832 23.1495 8.83919 24.4593 8.83919 25.8284C8.83919 26.4594 8.89266 27.0784 8.99981 27.6856C9.02364 27.8046 9.11877 28.0666 9.28564 28.4713C9.45239 28.8763 9.53564 29.1024 9.53564 29.1503C9.53564 29.3761 9.35113 29.6623 8.98198 30.0071C8.61289 30.3524 8.20828 30.6858 7.7677 31.0071C7.32724 31.3284 6.92257 31.7183 6.55341 32.1766C6.18464 32.6353 6 33.0728 6 33.4893C6 33.5728 6.00876 33.6528 6.02677 33.7305C6.04478 33.808 6.06273 33.8644 6.0805 33.8998C6.09826 33.9358 6.13116 33.9951 6.17863 34.0782C6.22648 34.1614 6.26188 34.2274 6.28584 34.2747C6.4883 34.6198 6.64899 34.87 6.76795 35.0247C6.88691 35.1793 7.07136 35.322 7.32149 35.4533C7.5713 35.584 7.87515 35.6495 8.23217 35.6495C8.57762 35.6495 8.93463 35.4591 9.30378 35.0785C9.67256 34.6977 9.98523 34.2805 10.2412 33.8285C10.497 33.3762 10.7651 32.9594 11.0447 32.5785C11.3244 32.1977 11.5596 32.0072 11.75 32.0072C12.0238 32.0072 12.5951 32.2276 13.4643 32.6681C14.3333 33.1088 14.8572 33.3586 15.0358 33.4184C16.6785 33.9778 18.3808 34.2576 20.1429 34.2576C22.8098 34.2576 25.4166 33.6142 27.9644 32.3286C30.5719 31.0311 32.6995 29.436 34.3485 27.543C35.9975 25.6497 37.0956 23.3704 37.6434 20.7033C37.8809 19.5366 37.9999 18.3878 37.9999 17.2568C38 16.8044 37.9525 16.233 37.8571 15.5428ZM28.5175 21.5961C28.2913 21.8223 28.0231 21.9355 27.7136 21.9355C25.5469 21.9355 23.6811 22.245 22.1155 22.8639C20.5503 23.4829 18.952 24.5306 17.321 26.0067C17.0832 26.233 16.6843 26.6257 16.1247 27.1853C15.5652 27.745 15.1246 28.1675 14.8033 28.4531C14.5532 28.6794 14.2854 28.7926 13.9996 28.7926C13.6899 28.7926 13.4221 28.6794 13.1958 28.4531C12.9696 28.2275 12.8566 27.9591 12.8566 27.6496C12.8566 27.3638 12.9696 27.0964 13.1958 26.846C14.6482 25.2388 16.05 23.9322 17.4013 22.9264C18.7525 21.9206 20.2973 21.123 22.0354 20.5336C23.7732 19.9442 25.6661 19.6496 27.7136 19.6496C28.0231 19.6496 28.2913 19.7627 28.5176 19.9888C28.7436 20.2153 28.8568 20.4832 28.8568 20.7926C28.8568 21.1021 28.744 21.3699 28.5175 21.5961Z" fill="white"/>
</svg>
