<svg width="45" height="45" viewBox="0 0 45 45" fill="none" xmlns="http://www.w3.org/2000/svg">
<circle cx="22.5" cy="22.5" r="22.5" fill="black" fill-opacity="0.3"/>
<path d="M6.17148 16.647L8.23721 18.3267L6.29296 22.2026C5.32087 23.9899 6.99087 25.7309 8.05491 26.337C9.10239 26.9336 10.7282 27.0045 12.2471 26.983L14.9811 22.3318L17.0469 23.4946L13.4622 16.5825L6.17148 16.647ZM6.47522 26.135L10.9104 34.6622C11.8015 35.8465 13.4825 36.1264 15.2242 36.0834H19.9024V28.0085L11.032 27.9439C9.65487 28.0299 7.85238 27.7284 6.47522 26.135ZM34.3794 10.4205L31.9663 11.4864L29.6513 7.83778C28.6205 6.08653 26.3475 6.76242 25.3224 7.43707C24.3132 8.10123 23.4653 9.54661 22.747 10.9395L25.3306 15.6829L23.3519 16.9993L30.899 17.0878L34.3794 10.4205ZM26.2579 6.09719L16.941 6C15.5137 6.23686 14.4634 7.63106 13.6553 9.23725L11.3872 13.4953L18.1738 17.4101L22.5286 9.36772C23.1238 8.07245 24.2511 6.57808 26.2579 6.09719ZM26.6632 39L26.9372 36.2868L31.1261 35.9488C33.0976 35.8595 33.6316 33.4631 33.5616 32.2029C33.4927 30.9623 32.6889 29.4899 31.8665 28.1609L26.6273 28.2128L26.4802 25.7735L22.7469 32.5999L26.6632 39ZM34.2342 33.704L38.8327 25.2712C39.3257 23.8572 38.6631 22.2254 37.705 20.7111L35.2259 16.5824L28.6455 20.8615L33.2934 28.7241C34.0935 29.8938 34.8029 31.6442 34.2342 33.704Z" fill="white"/>
</svg>
